<svg width="1000" height="1000" viewBox="0 0 1000 1000" fill="none" xmlns="http://www.w3.org/2000/svg">
<path d="M220.403 775.461C167.552 670.119 288.304 400.839 363.499 252.265C394.605 190.805 417.915 150 417.915 150C401.017 186.151 398.163 222.55 405.032 258.843C418.212 328.473 467.183 397.714 521.442 464.062C545.117 426.368 559.207 386.467 555.398 344.056C553.82 326.476 549.165 308.464 540.843 290C540.843 290 554.265 307.738 574.746 336.779C649.523 442.809 818.401 699.502 771.72 793.632C733.892 869.911 670.399 875.479 606.415 867.084C596.917 867.702 587.488 865.656 577.776 862.573C571.398 861.439 565.053 860.25 558.767 859.063C549.205 863.628 540.214 860.068 530.204 856.104C526.439 854.612 522.529 853.064 518.39 851.87C513.076 851.06 507.854 850.354 502.744 849.794C501.841 849.832 500.926 849.9 500 850C488.306 851.267 477.089 853.969 466.33 856.561C450.098 860.471 434.906 864.13 420.686 862.232C406.987 865.1 393.035 867.343 379.221 867.491C319.388 876.677 266.651 867.641 220.403 775.461ZM376.431 827.431C374.259 823.666 372.115 819.533 370 815C348.054 767.972 404.743 656.069 450.082 579.14C446.106 583.052 442.122 586.924 438.145 590.755C426.242 602.222 414.465 613.273 403.053 623.982C372.305 652.836 344.192 679.216 323.316 704.616C294.106 740.157 286.616 764.879 296.064 785.201C305.442 805.371 315.449 818.95 325.413 828.114C331.698 829.6 338.379 830.28 345.651 830.308C355.155 830.344 365.245 829.282 376.431 827.431ZM642.139 849.955C643.806 849.989 645.466 850.004 647.119 849.999C669.627 849.935 689.753 846.177 707.192 836.682C724.392 827.316 740.517 811.536 753.802 784.747C758.911 774.445 761.023 759.591 758.977 739.6C756.951 719.797 751.018 696.63 741.897 671.074C723.657 619.968 693.661 562.008 661.337 506.979C631.726 456.567 600.515 409.207 575.389 372.691C573.019 400.653 564.122 427.391 550.987 452.724C546.149 462.056 540.72 471.231 534.816 480.247C545.326 492.851 555.939 505.341 566.44 517.701C648.648 614.454 724.036 703.18 690.039 775.461C672.364 813.039 656.741 836.273 642.139 849.955ZM510.501 513.519C504.304 521.232 497.841 528.818 491.192 536.276C487.843 587.131 519.242 638.041 548.309 685.17C578.365 733.903 605.928 778.594 590 815C588.725 817.914 587.473 820.657 586.243 823.238C591.969 825.269 596.044 826.484 600.547 827.031C603.999 827.45 606.865 827.711 613.399 822.023C622.399 814.19 635.926 796.528 653.843 758.436C663.149 738.65 659.29 710.416 630.172 664.129C606.956 627.223 573.67 588.026 536.726 544.521C528.426 534.747 519.941 524.755 511.344 514.523C511.063 514.188 510.782 513.854 510.501 513.519ZM497.426 497.837C456.564 448.428 415.51 394.488 389.611 338.522C385.569 329.787 381.857 320.916 378.549 311.925C362.114 345.73 344.628 383.415 327.938 422.571C298.982 490.5 272.988 561.547 258.736 623.83C251.614 654.955 247.689 682.78 247.436 706.26C247.18 730.078 250.743 746.736 256.156 757.524C263.549 772.259 270.766 783.896 277.686 793.104C252.545 737.765 317.075 677.216 390.299 608.509C427.265 573.824 466.447 537.06 497.426 497.837Z" fill="black"/>
</svg>
