<svg width="1000" height="1000" viewBox="0 0 1000 1000" fill="none" xmlns="http://www.w3.org/2000/svg">
<path fill-rule="evenodd" clip-rule="evenodd" d="M198.718 266C192.568 266 187.876 271.499 188.843 277.573L275.974 824.718C278.293 839.282 290.853 850 305.601 850H694.443C709.171 850 721.721 839.309 724.061 824.767L812.135 277.589C813.113 271.51 808.419 266 802.262 266H198.718ZM485.147 305C479.567 305 475.067 309.567 475.148 315.146L482.16 795.457C482.302 805.187 490.23 813 499.962 813C509.692 813 517.619 805.188 517.763 795.459L524.85 315.148C524.933 309.568 520.432 305 514.851 305H485.147ZM688.244 313.711C688.891 308.728 693.136 305 698.16 305L727.136 305C733.285 305 737.977 310.498 737.011 316.571L660.395 798.308C659.049 806.771 651.751 813 643.181 813C632.663 813 624.541 803.754 625.896 793.323L688.244 313.711ZM312.691 305C317.716 305 321.96 308.728 322.608 313.711L384.955 793.323C386.311 803.754 378.189 813 367.67 813C359.101 813 351.803 806.771 350.457 798.308L273.84 316.571C272.874 310.498 277.567 305 283.716 305L312.691 305Z" fill="#1E1E1E"/>
<path d="M444 150C427.431 150 414 163.431 414 180V200H197C191.477 200 187 204.477 187 210V240C187 245.523 191.477 250 197 250H804C809.523 250 814 245.523 814 240V210C814 204.477 809.523 200 804 200H587V180C587 163.431 573.569 150 557 150H444Z" fill="#1E1E1E"/>
</svg>
