<svg width="1000" height="1000" viewBox="0 0 1000 1000" fill="none" xmlns="http://www.w3.org/2000/svg">
<path d="M443.5 150C485 230 484.996 230.562 490.958 274.346C514.263 245.575 526.5 237.5 526.5 190C526.5 190 550.519 225.141 540.02 277.628C528.202 336.703 519.002 383.838 551.5 435.399C562.271 391.48 581.061 360 581.061 309C597.926 401.299 710.212 474.954 754.792 579.993C838.393 776.97 847.758 849.636 516.216 849.636C184.674 849.636 151.597 693.809 234.258 499.5C291.016 366.084 443.5 200.5 443.5 150ZM626.703 802.254C656.675 794.765 684.371 782.345 704.521 764.53C760.164 715.336 735.16 655.265 717.971 595.621C693.943 512.241 597.926 401.299 597.926 401.299C597.926 401.299 598.019 461.167 599.258 499.5C603.095 618.156 694.14 739.955 626.703 802.254ZM501.644 530.927C450.522 435.399 472.022 363.779 472.022 363.779C472.022 363.779 391.722 476.566 356.987 539.759C318.34 610.072 334.896 675.425 373.408 726.736C388.535 746.889 406.788 764.335 425.665 778.096C369.985 666.983 552.766 626.456 501.644 530.927Z" fill="black"/>
</svg>
