<svg width="1000" height="1000" viewBox="0 0 1000 1000" fill="none" xmlns="http://www.w3.org/2000/svg">
<path d="M380 190C380 212.091 362.091 230 340 230C317.909 230 300 212.091 300 190C300 167.909 317.909 150 340 150C362.091 150 380 167.909 380 190Z" fill="black"/>
<path d="M380 345C380 367.091 362.091 385 340 385C317.909 385 300 367.091 300 345C300 322.909 317.909 305 340 305C362.091 305 380 322.909 380 345Z" fill="black"/>
<path d="M380 500C380 522.091 362.091 540 340 540C317.909 540 300 522.091 300 500C300 477.909 317.909 460 340 460C362.091 460 380 477.909 380 500Z" fill="black"/>
<path d="M380 655C380 677.091 362.091 695 340 695C317.909 695 300 677.091 300 655C300 632.909 317.909 615 340 615C362.091 615 380 632.909 380 655Z" fill="black"/>
<path d="M380 810C380 832.091 362.091 850 340 850C317.909 850 300 832.091 300 810C300 787.909 317.909 770 340 770C362.091 770 380 787.909 380 810Z" fill="black"/>
<path d="M710 190C710 212.091 692.091 230 670 230C647.909 230 630 212.091 630 190C630 167.909 647.909 150 670 150C692.091 150 710 167.909 710 190Z" fill="black"/>
<path d="M710 345C710 367.091 692.091 385 670 385C647.909 385 630 367.091 630 345C630 322.909 647.909 305 670 305C692.091 305 710 322.909 710 345Z" fill="black"/>
<path d="M710 500C710 522.091 692.091 540 670 540C647.909 540 630 522.091 630 500C630 477.909 647.909 460 670 460C692.091 460 710 477.909 710 500Z" fill="black"/>
<path d="M710 655C710 677.091 692.091 695 670 695C647.909 695 630 677.091 630 655C630 632.909 647.909 615 670 615C692.091 615 710 632.909 710 655Z" fill="black"/>
<path d="M710 810C710 832.091 692.091 850 670 850C647.909 850 630 832.091 630 810C630 787.909 647.909 770 670 770C692.091 770 710 787.909 710 810Z" fill="black"/>
</svg>
