<svg width="1000" height="1000" viewBox="0 0 1000 1000" fill="none" xmlns="http://www.w3.org/2000/svg">
<path d="M590.806 753.793C590.787 753.766 590.754 753.712 590.712 753.632C590.76 753.702 590.791 753.751 590.808 753.781C590.82 753.802 590.822 753.813 590.822 753.813L590.806 753.793Z" fill="black"/>
<path d="M591.752 744.501C591.822 744.423 591.868 744.385 591.868 744.385C591.868 744.385 591.837 744.424 591.752 744.501Z" fill="black"/>
<path d="M569.721 690.414C571.507 689.15 572.699 687.862 573.533 686.606C575.22 684.068 577.178 679.063 576.278 668.691C574.907 652.866 573.027 638.132 568.747 627.688C566.697 622.685 564.648 620.113 563.144 618.882C562.073 618.005 560.624 617.2 557.425 617.301C552.113 617.47 548.607 619.455 544.724 624.651C540.05 630.906 536.345 639.93 531.72 652.234C530.851 654.547 530.124 658.69 539.48 668.011C546.965 675.469 557.61 682.752 569.721 690.414Z" fill="black"/>
<path d="M401.746 645.183C413.708 653.353 425.761 658.879 435.251 660.518C442.79 661.82 445.33 660.174 445.786 659.802C446.055 659.582 449.206 656.905 449.206 645.197C449.206 641.385 448.217 640.764 447.827 640.519L447.752 640.47C446.313 639.469 442.302 637.859 434.245 638.035C424.999 638.237 413.571 640.74 401.746 645.183Z" fill="black"/>
<path d="M609.643 150.714H260V850H749.5V290.571L609.643 150.714ZM609.643 150.714L644.607 250.612L749.5 290.571H609.643V150.714ZM569.684 190.673V230.633H299.959V190.673H569.684ZM299.959 270.592H569.684V310.551H299.959V270.592ZM709.541 350.51V390.469H299.959V350.51H709.541ZM299.959 430.429H709.541V470.388H299.959V430.429ZM470.77 520.781C470.77 520.781 470.779 520.781 469.207 540.719C467.634 560.658 467.641 560.658 467.641 560.658L467.611 560.656L467.412 560.641C467.223 560.628 466.92 560.606 466.511 560.58C465.694 560.527 464.454 560.454 462.852 560.376C459.645 560.222 455.004 560.054 449.397 560.011C438.105 559.924 423.253 560.346 408.445 562.289C393.334 564.271 379.797 567.652 370.232 572.647C360.889 577.527 358.197 582.251 357.697 586.558C357.299 589.992 358.175 595.548 362.106 603.21C364.128 607.153 366.774 611.281 369.96 615.467C390.618 605.181 413.424 598.48 433.372 598.045C445.756 597.774 459.444 599.877 470.594 607.634C482.866 616.17 489.207 629.555 489.207 645.197C489.207 663.394 484.226 680.053 471.089 690.782C458.138 701.359 441.998 702.276 428.443 699.934C406.698 696.179 383.078 682.826 363.706 666.391C349.09 677.94 341.172 689.994 340.212 699.455C339.132 710.096 342.087 712.144 343.249 712.949L343.297 712.982C346.59 715.27 354.026 717.416 368.11 717.201C381.512 716.996 397.44 714.776 414.868 711.905C419.119 711.204 423.482 710.461 427.896 709.709L427.927 709.703C440.983 707.478 454.478 705.178 466.826 703.697C480.931 702.006 495.634 701.31 508.958 700.679L508.98 700.678C511.193 700.574 513.367 700.471 515.495 700.365C514.029 699.045 512.61 697.705 511.247 696.347C498.051 683.199 484.99 662.869 494.277 638.16C498.551 626.79 504.037 612.274 512.682 600.707C522.118 588.08 536.058 577.959 556.157 577.322C568.647 576.925 579.633 580.691 588.473 587.923C596.879 594.8 602.217 603.873 605.76 612.52C612.668 629.378 614.806 649.967 616.13 665.236C617.556 681.689 614.971 696.522 606.849 708.745C605.982 710.048 605.073 711.291 604.126 712.478C609.714 716.492 615.293 721.001 619.711 725.955C624.692 731.538 631.258 741.124 629.791 753.576C628.288 766.33 619.305 774.592 611.223 779.669C601.035 786.07 589.377 788.634 579.062 789.552C568.575 790.486 558.024 789.84 548.947 788.712C539.797 787.576 531.633 785.884 525.776 784.488C522.831 783.786 520.427 783.148 518.725 782.675L518.168 782.52C517.572 782.352 517.083 782.21 516.707 782.099L516.124 781.925L515.944 781.871L515.851 781.842C515.851 781.842 515.842 781.84 521.757 762.734C527.673 743.629 527.665 743.627 527.665 743.627L527.695 743.636L528.006 743.728C528.306 743.817 528.786 743.956 529.429 744.134C530.716 744.492 532.641 745.004 535.053 745.579C539.91 746.737 546.574 748.11 553.877 749.017C561.254 749.933 568.783 750.309 575.515 749.71C579.252 749.377 582.342 748.779 584.84 748.018C583.025 746.574 580.811 744.944 578.152 743.114C574.313 740.471 570.044 737.745 565.382 734.833C552.194 738.03 537.679 739.197 524.011 739.972C519.167 740.246 514.387 740.473 509.656 740.698L509.631 740.699C496.703 741.312 484.135 741.909 471.587 743.413C460.308 744.765 448.269 746.817 435.517 748.99L435.478 748.996C430.867 749.782 426.164 750.583 421.37 751.373C403.891 754.253 385.374 756.942 368.721 757.196C352.751 757.44 334.523 755.594 320.472 745.831C304.254 734.562 298.285 716.405 300.415 695.416C302.786 672.059 318.098 652.215 336.257 637.175C332.566 632.098 329.27 626.838 326.515 621.467C320.495 609.733 316.331 596.013 317.963 581.946C320.563 559.55 335.843 545.481 351.714 537.192C367.364 529.018 386.283 524.853 403.241 522.628C420.502 520.364 437.332 519.916 449.705 520.012C455.93 520.06 461.117 520.246 464.779 520.423C466.612 520.511 468.069 520.597 469.088 520.663C469.597 520.696 469.998 520.724 470.283 520.744L470.621 520.769L470.723 520.777L470.77 520.781ZM690 730C701.046 730 710 721.046 710 710C710 698.954 701.046 690 690 690C678.954 690 670 698.954 670 710C670 721.046 678.954 730 690 730Z" fill="black"/>
</svg>
