<svg width="1000" height="1000" viewBox="0 0 1000 1000" fill="none" xmlns="http://www.w3.org/2000/svg">
<path d="M526.667 414.168C491.111 428.951 449.383 438.728 401.481 443.496C400.494 447.311 400 449.934 400 451.365C400 453.511 400.494 456.491 401.481 460.307C434.815 461.737 458.519 466.625 472.593 474.971C472.593 495.238 472.716 518.844 472.963 545.788C473.21 572.732 473.333 591.808 473.333 603.015C473.333 636.635 472.839 665.248 471.852 688.854C471.605 695.054 469.506 700.419 465.556 704.949C461.605 709.241 455.802 712.579 448.148 714.964C440.494 717.348 434.074 719.136 428.889 720.328C423.704 721.282 417.037 722.236 408.889 723.19C407.901 727.959 407.407 730.939 407.407 732.131C407.407 733.562 407.901 736.185 408.889 740C441.481 738.569 472.839 737.854 502.963 737.854C533.58 737.854 565.185 738.569 597.778 740C599.259 737.854 600 735.231 600 732.131C600 729.032 599.259 726.051 597.778 723.19C590.617 722.236 584.815 721.282 580.37 720.328C575.926 719.136 570.37 717.348 563.704 714.964C557.037 712.579 551.852 709.241 548.148 704.949C544.691 700.419 542.84 695.054 542.593 688.854C540.617 635.681 539.63 547.219 539.63 423.467C537.16 419.652 532.84 416.552 526.667 414.168Z" fill="black"/>
<path d="M472.963 262.876C464.074 271.46 459.63 281.832 459.63 293.993C459.63 305.915 464.074 316.287 472.963 325.109C482.099 333.693 492.84 337.985 505.185 337.985C517.778 337.985 528.519 333.693 537.407 325.109C546.296 316.287 550.741 305.915 550.741 293.993C550.741 281.832 546.296 271.46 537.407 262.876C528.519 254.292 517.778 250 505.185 250C492.84 250 482.099 254.292 472.963 262.876Z" fill="black"/>
<path d="M850 500C850 693.3 693.3 850 500 850C306.7 850 150 693.3 150 500C150 306.7 306.7 150 500 150C693.3 150 850 306.7 850 500ZM810 500C810 328.792 671.208 190 500 190C328.792 190 190 328.792 190 500C190 671.208 328.792 810 500 810C671.208 810 810 671.208 810 500Z" fill="black"/>
</svg>
