<svg width="1000" height="1000" viewBox="0 0 1000 1000" fill="none" xmlns="http://www.w3.org/2000/svg">
<path fill-rule="evenodd" clip-rule="evenodd" d="M749.751 512.096C690.965 500.099 605.916 500 500 500C488.954 500 480 491.046 480 480C480 468.954 488.954 460 500 460L502.339 460C605.431 459.999 694.513 459.999 757.749 472.904C789.718 479.428 817.677 489.703 837.86 507.002C859.01 525.131 870 549.584 870 580C870 611.124 857.513 635.602 835.228 653.43C813.968 670.438 784.808 680.624 752.01 687.119C686.955 700.001 597.913 700.001 501.986 700H150.002C150.002 700 150 700 150 680L150.002 700C139.506 700 130.794 691.887 130.05 681.418C129.306 670.949 136.781 661.685 147.172 660.201L502.828 560.201V599.799L431.421 660H500C598.316 660 683.493 659.91 744.24 647.881C774.567 641.876 796.344 633.312 810.24 622.195C823.112 611.898 830 598.876 830 580C830 560.416 823.49 547.369 811.828 537.373C799.198 526.547 779.032 518.072 749.751 512.096Z" fill="black"/>
<path fill-rule="evenodd" clip-rule="evenodd" d="M130 830C130 818.954 138.954 810 150 810H500V850H150C138.954 850 130 841.046 130 830Z" fill="black"/>
</svg>
