<svg width="1000" height="1000" viewBox="0 0 1000 1000" fill="none" xmlns="http://www.w3.org/2000/svg">
<path d="M233.858 727.307C179.735 663.938 150 583.336 150 500H190.25C190.25 573.752 216.566 645.085 264.464 701.167C312.363 757.248 378.7 794.399 451.544 805.936C524.389 817.474 598.96 802.641 661.844 764.105C724.728 725.57 771.799 665.861 794.59 595.718C817.38 525.575 814.396 449.602 786.172 381.464C757.948 313.325 706.338 257.494 640.624 224.011C574.91 190.528 499.405 181.591 427.69 198.808C356.409 215.921 293.522 257.757 250.195 316.854L400.5 346.5L400.5 386.29H212.27C212.27 386.29 189.5 390.002 176.294 379.868C163.088 369.735 163 345.738 163 345.738V150L203.35 150L217.955 292.722L217.971 292.734C266.92 226.127 337.88 178.976 418.294 159.67C499.328 140.216 584.644 150.314 658.897 188.148C733.15 225.982 791.467 289.068 823.358 366.061C855.249 443.053 858.622 528.899 832.87 608.156C807.117 687.413 753.93 754.881 682.874 798.424C611.819 841.967 527.558 858.728 445.248 845.691C362.938 832.654 287.98 790.676 233.858 727.307Z" fill="black"/>
</svg>
