<svg width="1000" height="1000" viewBox="0 0 1000 1000" fill="none" xmlns="http://www.w3.org/2000/svg">
<path d="M256 150H310.73L390.409 285.837L589.711 285.665L669.27 150H724L520.169 495.139C520.169 495.139 519.097 497.25 516.952 500.091C518.937 502.769 519.929 504.722 519.929 504.722L724 849.861H723.47C723.82 849.954 724 850 724 850H256C256 850 256.18 849.954 256.528 849.861H256L459.831 504.722C459.831 504.722 460.903 502.611 463.048 499.77C461.064 497.092 460.071 495.139 460.071 495.139L256 150ZM325.985 823.847C363.045 806.339 405.756 779.573 429.831 742.162C449.84 711.07 459.844 642.82 467.402 582.701L325.985 823.847ZM512.303 582.263C519.868 642.488 529.872 710.994 549.929 742.162C574.06 779.663 616.921 806.453 654.072 823.951L512.303 582.263Z" fill="black"/>
</svg>
