<svg width="1000" height="1000" viewBox="0 0 1000 1000" fill="none" xmlns="http://www.w3.org/2000/svg">
<path d="M205.128 550.306H454.872C476.941 550.306 494.832 568.197 494.832 590.265V730.123C494.832 752.191 476.941 770.082 454.872 770.082H205.128C183.059 770.082 165.168 752.191 165.168 730.123V590.265C165.168 568.197 183.059 550.306 205.128 550.306Z" fill="black"/>
<path d="M434.893 150.714H85.25V850H574.75V290.571L434.893 150.714ZM434.893 150.714V290.571H574.75L469.857 250.612L434.893 150.714ZM394.934 190.673V230.633H125.209V190.673H394.934ZM125.209 270.592H394.934V310.551H125.209V270.592ZM534.791 350.51V390.469H125.209V350.51H534.791ZM125.209 430.429H534.791V470.388H125.209V430.429ZM125.209 590.265C125.209 546.128 160.99 510.347 205.128 510.347H454.872C499.01 510.347 534.791 546.128 534.791 590.265V730.123C534.791 774.26 499.01 810.041 454.872 810.041H205.128C160.99 810.041 125.209 774.26 125.209 730.123V590.265Z" fill="black"/>
<path d="M824.381 128.476C872.393 141.341 906.679 169.068 900.961 190.407L823.316 480.184C821.524 486.872 816.015 492.139 807.817 495.822L695.618 609.024L655.053 454.889C649.795 447.6 647.657 440.285 649.449 433.597L727.095 143.819C732.812 122.481 776.369 115.611 824.381 128.476ZM695.15 528.665L706.052 570.086L736.203 539.665L695.15 528.665ZM706.968 489.394L784.613 199.616C778.022 197.118 771.826 194.349 766.115 191.381L688.469 481.159C694.18 484.126 700.377 486.896 706.968 489.394ZM745.605 499.747C752.562 500.879 759.313 501.578 765.743 501.864L843.388 212.087C836.958 211.801 830.208 211.101 823.25 209.969L745.605 499.747Z" fill="black"/>
</svg>
