<svg width="1000" height="1000" viewBox="0 0 1000 1000" fill="none" xmlns="http://www.w3.org/2000/svg">
<path d="M205.128 550.306H454.872C476.941 550.306 494.832 568.197 494.832 590.265V730.123C494.832 752.191 476.941 770.082 454.872 770.082H205.128C183.059 770.082 165.168 752.191 165.168 730.123V590.265C165.168 568.197 183.059 550.306 205.128 550.306Z" fill="black"/>
<path d="M434.893 150.714H85.25V850H574.75V290.571L434.893 150.714ZM434.893 150.714V290.571H574.75L469.857 250.612L434.893 150.714ZM394.934 190.673V230.633H125.209V190.673H394.934ZM125.209 270.592H394.934V310.551H125.209V270.592ZM534.791 350.51V390.469H125.209V350.51H534.791ZM125.209 430.429H534.791V470.388H125.209V430.429ZM125.209 590.265C125.209 546.128 160.99 510.347 205.128 510.347H454.872C499.01 510.347 534.791 546.128 534.791 590.265V730.123C534.791 774.26 499.01 810.041 454.872 810.041H205.128C160.99 810.041 125.209 774.26 125.209 730.123V590.265Z" fill="black"/>
<path d="M824.381 281.476C872.393 294.341 906.679 322.068 900.961 343.407L823.316 633.184C821.524 639.872 816.015 645.139 807.817 648.822L695.618 762.024L655.053 607.889C649.795 600.6 647.657 593.285 649.449 586.597L727.095 296.819C732.812 275.481 776.369 268.611 824.381 281.476ZM695.15 681.665L706.052 723.086L736.203 692.665L695.15 681.665ZM706.968 642.394L784.613 352.616C778.022 350.118 771.826 347.349 766.115 344.381L688.469 634.159C694.18 637.126 700.377 639.896 706.968 642.394ZM745.605 652.747C752.562 653.879 759.313 654.578 765.743 654.864L843.388 365.087C836.958 364.801 830.208 364.101 823.25 362.969L745.605 652.747Z" fill="black"/>
</svg>
